<?xml version="1.0" encoding="UTF-8"?>
<svg xmlns="http://www.w3.org/2000/svg" width="900" height="900" viewBox="0 0 900 900" role="img" aria-label="Portret Älana tima">
  <defs>
    <linearGradient id="bg" x1="0" y1="0" x2="1" y2="1">
      <stop offset="0" stop-color="#ffffff"/>
      <stop offset="1" stop-color="#f8f8f8"/>
    </linearGradient>
    <radialGradient id="accent" cx="70%" cy="30%" r="70%">
      <stop offset="0" stop-color="#c9a961" stop-opacity="0.35"/>
      <stop offset="1" stop-color="#c9a961" stop-opacity="0"/>
    </radialGradient>
  </defs>

  <rect width="900" height="900" fill="url(#bg)"/>
  <rect width="900" height="900" fill="url(#accent)"/>

  <circle cx="450" cy="450" r="360" fill="#1a1a1a" fill-opacity="0.04"/>

  <!-- shoulders -->
  <path d="M190 770 C250 650, 340 600, 450 600 C560 600, 650 650, 710 770" fill="#c9a961" fill-opacity="0.18"/>
  <path d="M230 770 C280 680, 355 645, 450 645 C545 645, 620 680, 670 770" fill="#1a1a1a" fill-opacity="0.10"/>

  <!-- head -->
  <circle cx="450" cy="385" r="145" fill="#1a1a1a" fill-opacity="0.08"/>
  <circle cx="450" cy="395" r="125" fill="#ffffff" fill-opacity="0.65"/>

  <!-- hair -->
  <path d="M320 390 C325 275, 395 240, 450 240 C520 240, 585 285, 590 390 C565 350, 525 335, 450 335 C385 335, 345 350, 320 390" fill="#1a1a1a" fill-opacity="0.16"/>
  <path d="M350 300 C390 270, 420 260, 450 260 C490 260, 525 275, 560 305" fill="none" stroke="#c9a961" stroke-opacity="0.35" stroke-width="10" stroke-linecap="round"/>

  <path d="M300 705 L600 705" stroke="#c9a961" stroke-opacity="0.55" stroke-width="10" stroke-linecap="round"/>
</svg>
